<svg width="40" height="38" viewBox="0 0 40 38" fill="none" xmlns="http://www.w3.org/2000/svg">
<path d="M36.7289 3.90935C34.6599 1.68551 31.7608 0.420176 28.7233 0.415486C25.6835 0.419004 22.7813 1.68367 20.7091 3.90793L20.0029 4.65418L19.2967 3.90793C15.185 -0.517391 8.26429 -0.77153 3.83906 3.34018C3.64297 3.52245 3.45358 3.71175 3.27131 3.90793C-1.09044 8.6126 -1.09044 15.8835 3.27131 20.5881L18.9651 37.1382C19.5081 37.7114 20.4129 37.736 20.9861 37.193C21.0048 37.1753 21.0231 37.157 21.0408 37.1382L36.7289 20.5881C41.0904 15.884 41.0904 8.61352 36.7289 3.90935ZM34.6603 18.6196H34.6589L20.0029 34.0775L5.34563 18.6196C2.01351 15.0248 2.01351 9.46984 5.34563 5.87504C8.37159 2.59535 13.4834 2.38971 16.7631 5.41567C16.9224 5.5626 17.0756 5.7158 17.2225 5.87504L18.9651 7.71348C19.5394 8.28408 20.4666 8.28408 21.0408 7.71348L22.7835 5.87646C25.8094 2.59678 30.9213 2.39114 34.201 5.4171C34.3602 5.56402 34.5134 5.71722 34.6603 5.87646C38.0214 9.47696 38.046 15.042 34.6603 18.6196Z" fill="white"/>
</svg>
