<svg width="486" height="120" viewBox="0 0 486 120" fill="none" xmlns="http://www.w3.org/2000/svg">
<g clip-path="url(#clip0)">
<path d="M0.946974 31.3617C0.946974 26.2654 0.850903 21.2502 0.645039 16.3162C0.452901 11.3821 0.233312 6.44809 0 1.50052C2.03118 1.66273 4.11726 1.78439 6.23079 1.90606C8.34432 2.02772 10.4167 2.08179 12.4616 2.08179C14.4928 2.08179 16.5788 1.98716 18.6924 1.78439C20.8059 1.59514 22.8783 1.50052 24.9232 1.50052C28.2856 1.50052 31.4559 1.75736 34.434 2.25753C37.4122 2.75769 40.0335 3.64987 42.3117 4.92056C44.5762 6.19124 46.3878 7.90802 47.7191 10.0709C49.0503 12.2338 49.7228 14.9374 49.7228 18.1681C49.7228 23.8727 47.8975 28.3472 44.2606 31.5915C40.6237 34.8358 35.8614 37.1068 29.9874 38.418V38.6478C36.9593 38.9587 42.4627 40.6214 46.4976 43.6224C50.5325 46.6369 52.55 51.4493 52.55 58.0866C52.55 62.4124 51.6442 66.0352 49.8463 68.9686C48.0485 71.902 45.6879 74.2676 42.7921 76.0925C39.8963 77.9039 36.6985 79.1746 33.2126 79.9046C29.7266 80.6345 26.2544 80.9995 22.8096 80.9995C20.9294 80.9995 19.0355 80.959 17.1141 80.8779C15.1927 80.7968 13.2988 80.7562 11.4185 80.7562C9.53833 80.7562 7.64439 80.7562 5.723 80.7562C3.80161 80.7562 1.90767 80.8373 0.027449 80.986C0.260761 76.052 0.48035 71.1314 0.672489 66.2244C0.864627 61.3309 0.974418 56.3293 0.974418 51.2465V31.3617H0.946974ZM16.922 37.0257C19.6668 37.0257 22.3842 36.7553 25.0879 36.2146C27.7915 35.6739 30.1933 34.7682 32.3205 33.4975C34.434 32.2268 36.1358 30.5235 37.4259 28.4012C38.716 26.2789 39.361 23.6024 39.361 20.358C39.361 17.1948 38.7709 14.667 37.6043 12.7745C36.4241 10.882 34.9418 9.42203 33.144 8.38115C31.3461 7.34027 29.3012 6.65085 27.0367 6.29939C24.7722 5.94792 22.494 5.77219 20.2295 5.77219C18.1846 5.77219 16.4691 5.82626 15.0555 5.94792C13.6419 6.06958 12.393 6.20476 11.295 6.35346C11.1303 10.0574 10.9794 13.7207 10.8284 17.3435C10.6774 20.9664 10.5951 24.6297 10.5951 28.3336V37.0121H16.922V37.0257ZM10.5814 53.112C10.5814 57.0457 10.6637 60.9389 10.8147 64.805C10.9656 68.6577 11.1303 72.5643 11.2813 76.4981C12.7635 76.6468 14.5339 76.7819 16.5651 76.9036C18.5963 77.0253 20.6687 77.0793 22.7959 77.0793C25.3074 77.0793 27.7092 76.6603 30.0148 75.8086C32.3205 74.957 34.3517 73.7134 36.0672 72.0507C37.7827 70.3879 39.1552 68.3467 40.1845 65.9135C41.2001 63.4803 41.7079 60.7226 41.7079 57.6405C41.7079 54.3286 41.104 51.6115 39.8825 49.4757C38.6611 47.3534 36.9318 45.7042 34.6536 44.5011C32.3891 43.3115 29.658 42.4734 26.4877 42.0138C23.3174 41.5542 19.7629 41.3244 15.8515 41.3244H10.5676V53.112H10.5814Z" fill="#319D50"/>
<path d="M72.7253 31.4697C72.7253 26.3734 72.6292 21.3853 72.4234 16.4783C72.2312 11.5848 72.0116 6.58317 71.7783 1.48691C74.0565 1.64912 76.2799 1.77078 78.4757 1.89245C80.6716 2.01411 82.8949 2.06818 85.1731 2.06818C87.4514 2.06818 89.6747 1.97355 91.8706 1.77078C94.0664 1.58153 96.2898 1.48691 98.568 1.48691C101.862 1.48691 104.991 1.79782 107.969 2.41964C110.947 3.04147 113.555 4.05532 115.778 5.48822C118.015 6.92112 119.772 8.78659 121.062 11.0982C122.352 13.4097 122.997 16.3026 122.997 19.7767C122.997 23.4806 122.16 26.6573 120.472 29.3203C118.784 31.9834 116.739 34.1733 114.31 35.9171C111.88 37.6474 109.273 38.9992 106.501 39.9725C103.728 40.9458 101.189 41.5811 98.9248 41.8785C99.858 43.0411 101.162 44.6497 102.795 46.7315C104.442 48.8132 106.281 51.1113 108.326 53.6121C110.357 56.1129 112.484 58.7489 114.666 61.4795C116.862 64.2237 118.976 66.8462 121.007 69.347C123.038 71.8613 124.96 74.1458 126.771 76.2276C128.569 78.3094 130.024 79.891 131.122 80.9724C129.942 80.8102 128.775 80.7426 127.595 80.7426C126.428 80.7426 125.248 80.7426 124.068 80.7426C122.97 80.7426 121.831 80.7426 120.664 80.7426C119.484 80.7426 118.358 80.8237 117.26 80.9724C116.094 79.3503 114.31 76.917 111.908 73.6862C109.52 70.4419 106.871 66.9813 103.975 63.2639C101.08 59.56 98.1151 55.8831 95.1095 52.2197C92.0901 48.5564 89.3316 45.4472 86.8338 42.9059H82.3734V51.3546C82.3734 56.4509 82.4695 61.466 82.6616 66.4001C82.8538 71.3341 83.0733 76.2006 83.3066 80.9859C81.5088 80.8237 79.5874 80.7561 77.5425 80.7561C75.5113 80.7561 73.5899 80.8372 71.7783 80.9859C72.0116 76.2006 72.2312 71.3476 72.4234 66.4001C72.6155 61.466 72.7253 56.4509 72.7253 51.3546V31.4697ZM82.3597 38.0665C83.4576 38.2963 84.6516 38.4585 85.9417 38.5261C87.2318 38.6072 88.6591 38.6477 90.2236 38.6477C92.6528 38.6477 95.1781 38.3774 97.7994 37.8366C100.421 37.2959 102.836 36.3497 105.032 34.9979C107.228 33.6461 109.04 31.8347 110.494 29.5637C111.949 27.2927 112.676 24.4133 112.676 20.9392C112.676 17.9247 112.114 15.4374 110.975 13.4773C109.836 11.5037 108.367 9.94914 106.569 8.78659C104.771 7.62405 102.809 6.84001 100.695 6.40744C98.5817 5.98838 96.4956 5.77209 94.4644 5.77209C91.7196 5.77209 89.4551 5.82617 87.6572 5.94783C85.8594 6.06949 84.3222 6.20467 83.0733 6.35336C82.9086 10.598 82.7577 14.8021 82.6067 18.9656C82.4558 23.1291 82.3734 27.2927 82.3734 31.4697V38.0665H82.3597Z" fill="#319D50"/>
<path d="M209.363 80.9995C208.265 80.8373 207.236 80.7697 206.247 80.7697C205.259 80.7697 204.23 80.7697 203.132 80.7697C202.034 80.7697 200.991 80.7697 200.017 80.7697C199.028 80.7697 197.999 80.8508 196.901 80.9995C196.352 79.2286 195.611 77.0793 194.664 74.5785C193.731 72.0776 192.688 69.4416 191.549 66.711C190.41 63.9669 189.257 61.1957 188.077 58.384C186.896 55.5722 185.798 52.8822 184.783 50.3408C182.271 50.2597 179.732 50.2056 177.152 50.1651C174.558 50.1245 171.978 50.111 169.398 50.111C166.969 50.111 164.581 50.1245 162.234 50.1651C159.887 50.2056 157.499 50.2597 155.07 50.3408C152.558 56.3563 150.294 62.0879 148.249 67.5221C146.204 72.9563 144.681 77.4578 143.665 80.9995C142.334 80.8373 140.879 80.7697 139.314 80.7697C137.75 80.7697 136.295 80.8508 134.964 80.9995C141.304 67.4951 147.494 54.0717 153.519 40.7295C159.558 27.3873 165.624 13.8018 171.731 0H173.968C175.848 4.47444 177.879 9.31386 180.075 14.5183C182.271 19.7227 184.495 24.9947 186.773 30.3207C189.037 35.6468 191.315 40.9323 193.58 46.1773C195.858 51.4222 197.985 56.3022 199.989 60.8172C201.993 65.3322 203.791 69.3605 205.396 72.9158C207.03 76.4439 208.347 79.1475 209.363 80.9995ZM157.321 45.0147C159.352 45.0147 161.479 45.0553 163.661 45.1364C165.857 45.2175 167.971 45.2581 170.002 45.2581C172.198 45.2581 174.394 45.2445 176.576 45.204C178.772 45.1634 180.967 45.1094 183.163 45.0282L170.125 15.6403L157.321 45.0147Z" fill="#319D50"/>
<path d="M293.683 79.8776C294.356 80.0127 294.397 80.8779 293.725 80.9995C287.233 82.1215 272.493 83.1219 266.235 81.1347C251.756 76.5386 254.35 68.3738 248.599 54.3692C240.365 34.3086 229.413 28.3742 229.413 28.3742C229.413 28.3742 229.33 38.7154 229.33 42.3518C229.33 43.9739 229.372 46.0016 229.413 48.3537C229.454 50.7599 229.495 53.2878 229.495 55.8967C229.536 58.5057 229.632 61.1687 229.674 63.8723C229.756 66.5759 229.852 69.1038 229.934 71.4153C230.017 73.7269 230.072 75.7411 230.154 77.4578C230.236 79.2152 230.332 80.3777 230.415 81.0131C229.152 80.8373 227.766 80.7562 226.284 80.7562C224.719 80.7562 223.278 80.8373 221.933 81.0131C222.112 80.2425 222.276 78.8232 222.455 76.7279C222.674 74.6326 222.853 72.1453 223.017 69.266C223.155 66.3461 223.319 63.2235 223.539 59.8305C223.717 56.451 223.882 53.0174 224.019 49.6244C224.102 46.2449 224.239 42.933 224.28 39.6752C224.362 36.4174 224.417 34.4032 224.417 31.8348V31.6591C224.417 28.3337 223.951 24.9812 222.564 21.9532C221.919 20.5338 221.549 18.9657 221.549 17.3166C221.549 14.613 222.51 12.1257 224.115 10.2061C224.417 9.77354 224.815 9.39505 225.199 9.04358C227.821 11.8148 240.969 25.3057 250.438 44.001C265.26 73.2808 289.374 79.0124 293.683 79.8776Z" fill="#319D50"/>
<path d="M313.158 31.4697C313.158 26.3734 313.062 21.3853 312.856 16.4783C312.664 11.5848 312.444 6.58317 312.211 1.48691C315.189 1.64912 318.154 1.77078 321.077 1.89245C324.014 2.01411 326.964 2.06818 329.943 2.06818C332.921 2.06818 335.872 1.97355 338.808 1.77078C341.745 1.58153 344.696 1.48691 347.674 1.48691C354.564 1.48691 360.465 2.37909 365.351 4.14994C370.251 5.92079 374.258 8.44864 377.387 11.7335C380.516 15.0184 382.808 19.0197 384.263 23.7645C385.718 28.5093 386.445 33.8489 386.445 39.7967C386.445 47.5155 385.1 54.0176 382.397 59.3031C379.693 64.5886 376.248 68.8468 372.062 72.0911C367.876 75.3354 363.251 77.6199 358.201 78.9717C353.15 80.3235 348.306 80.9994 343.694 80.9994C341.032 80.9994 338.41 80.9589 335.83 80.8778C333.236 80.7967 330.615 80.7561 327.953 80.7561C325.29 80.7561 322.669 80.7561 320.089 80.7561C317.495 80.7561 314.873 80.8372 312.211 80.9859C312.444 76.2006 312.664 71.3476 312.856 66.4C313.048 61.466 313.158 56.4508 313.158 51.3546V31.4697ZM322.792 51.3816C322.792 59.7087 323.026 67.887 323.492 75.9167C325.139 76.2952 327.362 76.5926 330.19 76.7818C333.017 76.9711 335.913 77.0792 338.877 77.0792C343.186 77.0792 347.496 76.5791 351.805 75.5787C356.115 74.5784 359.971 72.6859 363.375 69.9012C366.778 67.13 369.564 63.3315 371.719 58.5056C373.874 53.6797 374.944 47.4479 374.944 39.8103C374.944 33.1054 374.107 27.59 372.419 23.2643C370.731 18.9386 368.425 15.532 365.488 13.0177C362.551 10.5169 359.038 8.77308 354.976 7.8133C350.9 6.85353 346.439 6.36688 341.581 6.36688C338.054 6.36688 334.774 6.48854 331.713 6.71835C328.653 6.94815 325.921 7.21851 323.492 7.52942C323.259 11.2333 323.081 15.113 322.957 19.1549C322.833 23.2102 322.779 27.3062 322.779 31.4832V51.3816H322.792Z" fill="#319D50"/>
<path d="M397.986 41.419C397.986 34.8628 399.057 29.023 401.225 23.8862C403.38 18.7629 406.399 14.4101 410.269 10.8684C414.153 7.32672 418.792 4.62313 424.2 2.77118C429.607 0.919219 435.522 0 441.945 0C448.437 0 454.393 0.932737 459.8 2.77118C465.208 4.62313 469.846 7.32672 473.717 10.8684C477.601 14.4236 480.606 18.7629 482.761 23.8862C484.916 29.023 486 34.8628 486 41.419C486 47.9752 484.916 53.8284 482.761 58.9517C480.606 64.0885 477.587 68.4278 473.717 71.9695C469.846 75.5247 465.208 78.1607 459.8 79.891C454.393 81.6213 448.437 82.5 441.945 82.5C435.522 82.5 429.607 81.6348 424.2 79.891C418.792 78.1607 414.153 75.5112 410.269 71.9695C406.399 68.4143 403.38 64.0885 401.225 58.9517C399.057 53.8284 397.986 47.9752 397.986 41.419ZM474.471 41.419C474.471 35.0115 473.648 29.4826 472.001 24.8189C470.354 20.1552 468.062 16.2891 465.125 13.2476C462.188 10.206 458.743 7.94855 454.791 6.47509C450.838 5.01516 446.543 4.27167 441.931 4.27167C437.389 4.27167 433.134 5.00164 429.181 6.47509C425.229 7.94855 421.784 10.1925 418.847 13.2476C415.91 16.2891 413.618 20.1552 411.971 24.8189C410.324 29.4826 409.501 35.025 409.501 41.419C409.501 47.8265 410.324 53.3553 411.971 58.019C413.618 62.6827 415.91 66.5488 418.847 69.5903C421.784 72.6454 425.229 74.8894 429.181 76.3628C433.134 77.8228 437.389 78.5663 441.931 78.5663C446.556 78.5663 450.838 77.8363 454.791 76.3628C458.743 74.9029 462.188 72.6454 465.125 69.5903C468.062 66.5488 470.354 62.6827 472.001 58.019C473.648 53.3688 474.471 47.8265 474.471 41.419Z" fill="#319D50"/>
<path d="M218.79 2.69056C218.118 2.55538 218.076 1.69023 218.749 1.56857C225.24 0.446582 239.98 -0.553743 246.238 1.43339C260.718 6.02949 258.124 14.1943 263.874 28.1989C272.109 48.2595 283.061 54.1939 283.061 54.1939C283.061 54.1939 283.143 43.8527 283.143 40.2163C283.143 38.5942 283.102 36.5665 283.061 34.2144C283.019 31.8082 282.978 29.2803 282.978 26.6714C282.937 24.0624 282.841 21.3994 282.8 18.6958C282.717 15.9922 282.621 13.4644 282.539 11.1528C282.457 8.84122 282.402 6.82705 282.319 5.11027C282.237 3.35294 282.141 2.1904 282.059 1.55505C283.321 1.73079 284.707 1.81189 286.19 1.81189C287.754 1.81189 289.195 1.73079 290.54 1.55505C290.362 2.32558 290.197 3.74496 290.019 5.84024C289.799 7.93552 289.621 10.4228 289.456 13.3021C289.319 16.222 289.154 19.3447 288.934 22.7377C288.756 26.1171 288.591 29.5507 288.454 32.9437C288.372 36.3232 288.235 39.6351 288.193 42.8929C288.111 46.1507 288.056 48.1649 288.056 50.7333V50.909C288.056 54.2344 288.523 57.5869 289.909 60.6149C290.554 62.0343 290.924 63.6024 290.924 65.2516C290.924 67.9552 289.964 70.4424 288.358 72.362C288.056 72.7946 287.658 73.1731 287.274 73.5245C284.653 70.7534 271.505 57.2625 262.035 38.5672C247.213 9.28731 223.086 3.56923 218.79 2.69056Z" fill="#319D50"/>
<g clip-path="url(#clip1)">
<path d="M79.0558 113.506C77.4444 111.729 76.6387 109.516 76.6387 106.833C76.6387 104.184 77.4444 101.96 79.0558 100.183C80.6989 98.4053 82.7238 97.5 85.1409 97.5C87.5579 97.5 89.5616 98.4053 91.1941 100.183C92.8373 101.96 93.643 104.173 93.643 106.833C93.643 109.482 92.8373 111.729 91.1941 113.506C89.5616 115.283 87.5579 116.155 85.1409 116.155C82.7238 116.155 80.6989 115.283 79.0558 113.506ZM85.1409 115.026C87.2187 115.026 88.9467 114.255 90.3673 112.679C91.7878 111.103 92.4875 109.18 92.4875 106.833C92.4875 104.486 91.7772 102.552 90.3673 100.987C88.9467 99.4113 87.2187 98.6401 85.1409 98.6401C83.063 98.6401 81.3244 99.4113 79.9144 100.987C78.4939 102.552 77.7836 104.486 77.7836 106.833C77.7836 109.18 78.4939 111.103 79.9144 112.679C81.335 114.255 83.0736 115.026 85.1409 115.026Z" fill="white"/>
<path d="M98.043 115.853V97.8242H109.45V98.9307H99.1667V104.933H104.881C106.736 104.933 108.178 105.447 109.227 106.453C110.277 107.459 110.786 108.767 110.786 110.388C110.786 113.685 108.612 115.853 104.881 115.853H98.043ZM99.1667 114.747H104.785C107.892 114.747 109.641 113.171 109.641 110.388C109.641 107.638 107.839 106.04 104.785 106.04H99.1667V114.747Z" fill="white"/>
<path d="M114.41 115.82V114.68C114.951 114.914 115.534 115.015 116.149 115.015C117.707 115.015 118.64 113.808 119.743 111.204L119.838 110.969L112.873 97.813H114.166L120.421 109.683L125.595 97.813H126.845L120.538 112.053C119.191 115.071 117.993 116.144 116.308 116.144C115.608 116.155 114.972 116.054 114.41 115.82Z" fill="white"/>
<path d="M130.216 115.853V97.8242H137.393C140.393 97.8242 142.185 99.4672 142.185 102.172C142.185 104.151 141.4 105.436 139.81 106.04C142.259 106.431 143.722 108.253 143.722 110.857C143.722 113.875 141.676 115.853 138.23 115.853H130.216ZM131.34 114.747H138.061C140.891 114.747 142.503 113.305 142.503 110.756C142.503 108.208 140.891 106.766 138.061 106.766H131.34V114.747ZM131.34 105.727H137.255C139.704 105.727 141.093 104.486 141.093 102.329C141.093 100.171 139.704 98.9307 137.255 98.9307H131.34V105.727Z" fill="white"/>
<path d="M147.783 115.853V97.8242H148.907V104.911H154.547C156.423 104.911 157.865 105.425 158.914 106.431C159.964 107.437 160.473 108.744 160.473 110.365C160.473 113.685 158.278 115.853 154.536 115.853H147.783ZM148.907 114.747H154.473C157.579 114.747 159.36 113.148 159.36 110.365C159.36 107.616 157.579 106.017 154.473 106.017H148.907V114.747Z" fill="white"/>
<path d="M170.873 106.084C170.873 104.721 171.976 103.558 173.269 103.558C174.605 103.558 175.686 104.665 175.686 106.084C175.686 107.448 174.605 108.577 173.269 108.577C171.965 108.588 170.873 107.459 170.873 106.084Z" fill="white"/>
<path d="M189.064 113.528C187.431 111.751 186.594 109.537 186.594 106.833C186.594 104.128 187.421 101.915 189.064 100.16C190.696 98.3825 192.753 97.5107 195.191 97.5107C197.047 97.5107 198.69 97.9801 200.079 98.9302V100.216C198.584 99.1649 196.972 98.6508 195.223 98.6508C193.124 98.6508 191.343 99.422 189.901 100.998C188.46 102.54 187.749 104.497 187.749 106.844C187.749 109.191 188.46 111.147 189.901 112.712C191.343 114.254 193.124 115.026 195.255 115.026C197.28 115.026 199.018 114.411 200.481 113.148V114.456C199.061 115.584 197.312 116.154 195.202 116.154C192.764 116.154 190.707 115.283 189.064 113.528Z" fill="white"/>
<path d="M203.822 115.82V114.68C204.363 114.914 204.946 115.015 205.561 115.015C207.119 115.015 208.052 113.808 209.155 111.204L209.25 110.969L202.285 97.813H203.579L209.833 109.683L215.007 97.813H216.258L209.95 112.053C208.603 115.071 207.406 116.144 205.72 116.144C205.02 116.155 204.384 116.054 203.822 115.82Z" fill="white"/>
<path d="M219.638 115.853V97.8242H220.783L227.43 107.012L234.077 97.8242H235.168V115.853H234.045V99.6572L227.79 108.309H227.059L220.751 99.6572V115.853H219.638Z" fill="white"/>
<path d="M240.322 115.853V97.8242H241.446V105.782L250.139 97.8242H251.729L242.718 106.084L253.097 115.842H251.39L241.446 106.464V115.842H240.322V115.853Z" fill="white"/>
<path d="M255.917 115.853V97.8242H257.041V113.841L268.596 97.8242H269.624V115.853H268.501V99.7802L256.903 115.853H255.917Z" fill="white"/>
<path d="M281.296 106.084C281.296 104.721 282.398 103.558 283.692 103.558C285.038 103.558 286.109 104.665 286.109 106.084C286.109 107.448 285.038 108.577 283.692 108.577C282.398 108.588 281.296 107.459 281.296 106.084Z" fill="white"/>
<path d="M298.733 113.506C297.122 111.729 296.316 109.516 296.316 106.833C296.316 104.184 297.122 101.96 298.733 100.183C300.366 98.4053 302.401 97.5 304.819 97.5C307.236 97.5 309.239 98.4053 310.872 100.183C312.504 101.96 313.31 104.173 313.31 106.833C313.31 109.482 312.504 111.729 310.872 113.506C309.239 115.283 307.236 116.155 304.819 116.155C302.401 116.155 300.366 115.283 298.733 113.506ZM304.819 115.026C306.896 115.026 308.624 114.255 310.045 112.679C311.465 111.103 312.165 109.18 312.165 106.833C312.165 104.486 311.455 102.552 310.045 100.987C308.624 99.4113 306.896 98.6401 304.819 98.6401C302.741 98.6401 301.013 99.4113 299.592 100.987C298.172 102.552 297.461 104.486 297.461 106.833C297.461 109.18 298.172 111.103 299.592 112.679C301.002 114.255 302.741 115.026 304.819 115.026Z" fill="white"/>
<path d="M314.446 119.989V114.735H316.036C317.181 113.059 318.019 111.125 318.528 108.968C319.037 106.8 319.312 103.715 319.312 99.702V97.8242H329.299V114.747H331.981V120H330.91V115.853H315.517V120H314.446V119.989ZM328.175 114.747V98.9307H320.436V100.138C320.436 107.012 319.577 111.55 317.362 114.747H328.175Z" fill="white"/>
<path d="M335.383 115.853V97.8242H346.811V98.9307H336.507V105.604H345.03V106.71H336.507V114.747H347.203V115.853H335.383Z" fill="white"/>
<path d="M348.983 115.853L358.122 106.297L349.969 97.8242H351.454L359.267 105.984V97.8242H360.39V106.04L368.256 97.8242H369.751L361.567 106.297L370.727 115.853H369.189L360.401 106.688V115.853H359.277V106.71L350.531 115.853H348.983Z" fill="white"/>
<path d="M371.776 119.989V114.735H373.367C374.511 113.059 375.349 111.125 375.858 108.968C376.367 106.8 376.642 103.715 376.642 99.702V97.8242H386.629V114.747H389.311V120H388.24V115.853H372.847V120H371.776V119.989ZM385.505 114.747V98.9307H377.766V100.138C377.766 107.012 376.907 111.55 374.692 114.747H385.505Z" fill="white"/>
<path d="M390.954 115.853L398.725 97.7236H399.774L407.492 115.853H406.315L404.047 110.544H394.421L392.152 115.853H390.954ZM394.813 109.516H403.633L399.234 99.2661L394.813 109.516Z" fill="white"/>
</g>
</g>
<defs>
<clipPath id="clip0">
<rect width="486" height="120" fill="white"/>
</clipPath>
<clipPath id="clip1">
<rect width="486" height="119" fill="white" transform="translate(0 1)"/>
</clipPath>
</defs>
</svg>
